<?xml version="1.0" encoding="UTF-8"?>
<svg version="1.1" xmlns="http://www.w3.org/2000/svg" width="128" height="128">
<path d="M0 0 C14.66593153 10.19568513 25.60840641 23.74932626 29.74780273 41.46484375 C31.86603529 54.29763126 31.44584138 68.79991362 26.125 80.75 C25.76277344 81.62269531 25.40054688 82.49539062 25.02734375 83.39453125 C18.09754142 98.6870781 5.49686334 109.65474576 -9.84375 115.97265625 C-25.82879012 121.9670463 -44.82050958 122.0441142 -60.50390625 115.15625 C-77.72836371 106.92758837 -89.18904485 93.70441889 -95.875 75.75 C-100.2042553 61.74447934 -99.85726117 44.18557018 -93.875 30.75 C-93.51277344 29.87730469 -93.15054688 29.00460938 -92.77734375 28.10546875 C-85.8549626 12.82929883 -73.23462165 1.78063924 -57.87109375 -4.47265625 C-38.93392049 -11.50790437 -17.48941603 -10.43527048 0 0 Z " fill="#4979FE" transform="translate(97.875,8.25)"/>
<path d="M0 0 C0.65355469 0.4125 1.30710938 0.825 1.98046875 1.25 C3.00720703 1.86875 3.00720703 1.86875 4.0546875 2.5 C11.38959915 7.41788362 16.72598303 14.69996924 18.98046875 23.25 C20.13831512 35.36699694 18.35235843 44.90517446 10.671875 54.43359375 C4.48279988 61.0800601 -2.30765913 64.70760652 -11.3515625 65.56640625 C-22.40115986 65.93751949 -30.44216412 63.34367802 -38.9765625 56.3046875 C-46.01910933 49.22174365 -49.02705155 40.76758188 -49.39453125 30.9375 C-49.19567656 20.72572671 -45.271033 12.44646189 -38.01953125 5.25 C-27.18894293 -2.76566521 -12.54146838 -6.77662832 0 0 Z " fill="#FAB813" transform="translate(79.01953125,32.75)"/>
<path d="M0 0 C5.54430048 4.62063259 10.68218557 9.536034 15.77734375 14.64453125 C16.58869278 15.45492355 17.40004181 16.26531586 18.23597717 17.1002655 C19.93727402 18.80088556 21.6373236 20.50275421 23.33618164 22.20581055 C25.95019665 24.82522287 28.56955855 27.43920411 31.18945312 30.05273438 C32.84407111 31.70801241 34.49837927 33.36360022 36.15234375 35.01953125 C36.9397142 35.80487747 37.72708466 36.59022369 38.53831482 37.39936829 C39.61557579 38.4813575 39.61557579 38.4813575 40.71459961 39.58520508 C41.3507872 40.22218826 41.98697479 40.85917145 42.6424408 41.51545715 C44 43 44 43 44 44 C41.03 44 38.06 44 35 44 C35 46.64 35 49.28 35 52 C38.3 52 41.6 52 45 52 C45 49.69 45 47.38 45 45 C46.64893364 46.37411136 48.29089466 47.75737593 49.8984375 49.1796875 C51.99871626 51.04292983 51.99871626 51.04292983 54.3515625 52.7578125 C56.74283035 54.72177475 58.43279923 56.32495042 60 59 C60.07487671 63.40524631 58.68441093 66.97140887 57 71 C56.57589844 72.01835938 56.15179688 73.03671875 55.71484375 74.0859375 C47.27855667 92.36847606 33.15779069 103.4314425 14.60546875 110.3359375 C11.39160346 111.15506359 9.30692383 111.53659519 6 111 C3.39630829 109.14134621 1.29261801 106.90421402 -0.875 104.5625 C-1.76445313 103.64500977 -1.76445313 103.64500977 -2.671875 102.70898438 C-7 98.19636557 -7 98.19636557 -7 97 C-4.69 97 -2.38 97 0 97 C0 93.7 0 90.4 0 87 C-2.64 87 -5.28 87 -8 87 C-8 89.97 -8 92.94 -8 96 C-13.54430048 91.37936741 -18.68218557 86.463966 -23.77734375 81.35546875 C-24.58869278 80.54507645 -25.40004181 79.73468414 -26.23597717 78.8997345 C-27.93727402 77.19911444 -29.6373236 75.49724579 -31.33618164 73.79418945 C-33.95019665 71.17477713 -36.56955855 68.56079589 -39.18945312 65.94726562 C-40.84407111 64.29198759 -42.49837927 62.63639978 -44.15234375 60.98046875 C-44.9397142 60.19512253 -45.72708466 59.40977631 -46.53831482 58.60063171 C-47.61557579 57.5186425 -47.61557579 57.5186425 -48.71459961 56.41479492 C-49.668881 55.45932014 -49.668881 55.45932014 -50.6424408 54.48454285 C-52 53 -52 53 -52 52 C-49.03 52 -46.06 52 -43 52 C-43 49.69 -43 47.38 -43 45 C-39.88467148 46.68396136 -38.2546964 48.1653019 -37.2109375 51.5859375 C-36.99695312 52.58882812 -36.78296875 53.59171875 -36.5625 54.625 C-34.61789862 63.48373964 -30.86167577 70.64800025 -23.1796875 75.75 C-13.9161503 81.06242277 -4.75753679 82.9019856 5.8359375 80.3046875 C15.27834447 76.84731387 22.43515908 71.05781005 26.96875 62.08203125 C30.28094011 53.90889547 30.76856958 43.25534371 27.375 35.0625 C26.2863363 32.9737496 26.2863363 32.9737496 25 31 C24.55269531 30.29230469 24.10539062 29.58460937 23.64453125 28.85546875 C18.66318766 21.65722694 12.45271971 17.29621126 4 15 C2.7625 14.87625 1.525 14.7525 0.25 14.625 C-3 14 -3 14 -5.4375 11.4375 C-5.953125 10.633125 -6.46875 9.82875 -7 9 C-4.69 9 -2.38 9 0 9 C0 6.03 0 3.06 0 0 Z " fill="#0253BE" transform="translate(68,16)"/>
<path d="M0 0 C0 22.44 0 44.88 0 68 C-9.70340208 68 -16.475683 65.22514464 -23.95703125 59.0546875 C-30.99957808 51.97174365 -34.0075203 43.51758188 -34.375 33.6875 C-34.17614531 23.47572671 -30.25150175 15.19646189 -23 8 C-15.54130604 2.47985725 -9.34832006 0 0 0 Z " fill="#FBCC03" transform="translate(64,30)"/>
<path d="M0 0 C6.65952453 0 8.97889328 1.07323705 14 5 C19.33006471 10.75085929 20.51502547 15.20922221 20.3828125 22.953125 C19.64270306 28.84379198 16.68676771 32.43665432 12.4375 36.375 C7.57032972 39.61978019 6.32280432 40 0 40 C0 26.8 0 13.6 0 0 Z " fill="#FEA300" transform="translate(64,44)"/>
<path d="M0 0 C0 13.2 0 26.4 0 40 C-6.65952453 40 -8.97889328 38.92676295 -14 35 C-19.33006471 29.24914071 -20.51502547 24.79077779 -20.3828125 17.046875 C-19.64270306 11.15620802 -16.68676771 7.56334568 -12.4375 3.625 C-7.57032972 0.38021981 -6.32280432 0 0 0 Z " fill="#FDBA11" transform="translate(64,44)"/>
<path d="M0 0 C3.25857415 1.62928707 4.77653262 2.52700111 7.20800781 4.96508789 C7.80832825 5.5623317 8.40864868 6.1595755 9.02716064 6.7749176 C9.980513 7.73904823 9.980513 7.73904823 10.953125 8.72265625 C11.61334656 9.38333603 12.27356812 10.04401581 12.95379639 10.72471619 C14.34461941 12.11855504 15.73301645 13.5148183 17.11914062 14.91333008 C19.25075922 17.06326575 21.39033252 19.20503116 23.53125 21.34570312 C24.88068245 22.7000486 26.22965699 24.05485052 27.578125 25.41015625 C28.22179016 26.05493423 28.86545532 26.69971222 29.52862549 27.36402893 C34 31.88394204 34 31.88394204 34 33 C28.64416621 33.95070367 23.03862768 34.77123183 18.17053223 31.93359375 C13.68236757 28.44373114 9.92669887 24.20433383 6.125 20 C4.93955775 18.74421568 3.75077539 17.49157556 2.55859375 16.2421875 C-0.33409018 13.19637934 -3.17814806 10.11148484 -6 7 C-4.02 4.69 -2.04 2.38 0 0 Z " fill="#0254C0" transform="translate(38,95)"/>
<path d="M0 0 C5.94691508 5.02510246 11.76095621 10.1708329 17.4375 15.5 C18.82098633 16.71429688 18.82098633 16.71429688 20.23242188 17.953125 C24.18953706 21.72571149 26.72595054 24.25797321 27.59423828 29.77734375 C27.59728921 33.23970788 27.42859636 36.56624906 27 40 C22.33125463 36.10023279 17.90872191 32.04785356 13.62890625 27.7265625 C13.06171371 27.15795502 12.49452118 26.58934753 11.91014099 26.00350952 C10.12520087 24.21303764 8.34379744 22.41909516 6.5625 20.625 C5.34203061 19.39950677 4.12132947 18.17424428 2.90039062 16.94921875 C-0.06908756 13.96880226 -3.03540257 10.98527106 -6 8 C-4.44805246 4.67240077 -2.69378051 2.51419515 0 0 Z " fill="#0254C0" transform="translate(101,32)"/>
<path d="M0 0 C3.2586636 1.4264578 5.4024854 3.16704162 7.890625 5.6953125 C8.95410156 6.76845703 8.95410156 6.76845703 10.0390625 7.86328125 C11.13347656 8.98283203 11.13347656 8.98283203 12.25 10.125 C12.99507812 10.87910156 13.74015625 11.63320312 14.5078125 12.41015625 C16.3431342 14.26900772 18.1736191 16.13237005 20 18 C20.33 15.36 20.66 12.72 21 10 C23.64 10 26.28 10 29 10 C29 13.3 29 16.6 29 20 C27.02 20.33 25.04 20.66 23 21 C27.29 25.29 31.58 29.58 36 34 C35.01 34.33 34.02 34.66 33 35 C28.29333458 30.34389581 23.59441048 25.68008529 18.90087891 21.01074219 C17.30208228 19.42202543 15.70149831 17.83510531 14.09912109 16.25 C11.80097749 13.97601746 9.50926378 11.69572688 7.21875 9.4140625 C6.49691528 8.70255035 5.77508057 7.99103821 5.03137207 7.25796509 C4.37068726 6.59743134 3.71000244 5.93689758 3.02929688 5.25634766 C2.44305542 4.67454742 1.85681396 4.09274719 1.25280762 3.49331665 C0 2 0 2 0 0 Z " fill="#3F74F5" transform="translate(39,93)"/>
<path d="M0 0 C2.95265112 1.32994383 5.02350216 2.77779316 7.29980469 5.07275391 C8.23031647 6.00349228 8.23031647 6.00349228 9.17962646 6.95303345 C10.16578949 7.95468033 10.16578949 7.95468033 11.171875 8.9765625 C11.8542926 9.66181 12.53671021 10.3470575 13.23980713 11.05307007 C15.41461598 13.23905845 17.58236072 15.43190429 19.75 17.625 C21.2247999 19.10983255 22.70005506 20.59421306 24.17578125 22.078125 C27.78915448 25.7135291 31.39620853 29.35509824 35 33 C34.67 33.99 34.34 34.98 34 36 C29.71 31.71 25.42 27.42 21 23 C20.67 24.98 20.34 26.96 20 29 C16.7 29 13.4 29 10 29 C10 26.36 10 23.72 10 21 C13.96 20.505 13.96 20.505 18 20 C17.45472656 19.4652002 16.90945312 18.93040039 16.34765625 18.37939453 C13.89327746 15.96644649 11.44657444 13.54585969 9 11.125 C8.14148438 10.28324219 7.28296875 9.44148438 6.3984375 8.57421875 C5.58632812 7.76855469 4.77421875 6.96289062 3.9375 6.1328125 C2.80634766 5.01737061 2.80634766 5.01737061 1.65234375 3.87939453 C0 2 0 2 0 0 Z " fill="#3F74F5" transform="translate(93,39)"/>
<path d="M0 0 C2.64 0 5.28 0 8 0 C8 3.3 8 6.6 8 10 C5.36 10 2.72 10 0 10 C0 6.7 0 3.4 0 0 Z " fill="#E6B51D" transform="translate(60,103)"/>
<path d="M0 0 C3.3 0 6.6 0 10 0 C10 2.64 10 5.28 10 8 C6.7 8 3.4 8 0 8 C0 5.36 0 2.72 0 0 Z " fill="#E5B021" transform="translate(103,60)"/>
<path d="M0 0 C3.3 0 6.6 0 10 0 C10 2.64 10 5.28 10 8 C6.7 8 3.4 8 0 8 C0 5.36 0 2.72 0 0 Z " fill="#EAC413" transform="translate(15,60)"/>
<path d="M0 0 C2.64 0 5.28 0 8 0 C8 3.3 8 6.6 8 10 C5.36 10 2.72 10 0 10 C0 6.7 0 3.4 0 0 Z " fill="#EAB720" transform="translate(60,15)"/>
<path d="M0 0 C2.31 1.98 4.62 3.96 7 6 C5 10 5 10 1 12 C-0.98 9.69 -2.96 7.38 -5 5 C-3.35 3.35 -1.7 1.7 0 0 Z " fill="#EBB21E" transform="translate(94,89)"/>
<path d="M0 0 C1.98 1.65 3.96 3.3 6 5 C4.02 7.31 2.04 9.62 0 12 C-4.5 9.75 -4.5 9.75 -6 6 C-4.02 4.02 -2.04 2.04 0 0 Z " fill="#F1C711" transform="translate(33,89)"/>
<path d="M0 0 C3.78496138 1.51398455 4.0072198 2.0144396 6 6 C3.69 7.98 1.38 9.96 -1 12 C-2.65 10.02 -4.3 8.04 -6 6 C-4.02 4.02 -2.04 2.04 0 0 Z " fill="#F0B522" transform="translate(95,27)"/>
<path d="M0 0 C3.7952131 1.49097658 5.61042731 3.75700849 8 7 C6.02 8.65 4.04 10.3 2 12 C0.02 10.02 -1.96 8.04 -4 6 C-2.84826645 3.53199953 -1.95216435 1.95216435 0 0 Z " fill="#F1C711" transform="translate(31,27)"/>
<path d="M0 0 C1.32 0.66 2.64 1.32 4 2 C2.95125002 4.62187494 2.35068687 5.79371361 -0.125 7.25 C-0.74375 7.4975 -1.3625 7.745 -2 8 C-2.66 6.68 -3.32 5.36 -4 4 C-2.68 2.68 -1.36 1.36 0 0 Z " fill="#0656C0" transform="translate(38,34)"/>
<path d="M0 0 C0.99 0 1.98 0 3 0 C3 2.97 3 5.94 3 9 C2.01 9 1.02 9 0 9 C0 6.03 0 3.06 0 0 Z " fill="#FFCD00" transform="translate(61,104)"/>
<path d="M0 0 C0.99 0 1.98 0 3 0 C3 2.97 3 5.94 3 9 C2.01 9 1.02 9 0 9 C0 6.03 0 3.06 0 0 Z " fill="#FFCD00" transform="translate(61,15)"/>
</svg>
